<svg width="16" height="15" viewBox="0 0 16 15" fill="none" xmlns="http://www.w3.org/2000/svg">
<g id="fi-rr-edit" clip-path="url(#clip0_162_667)">
<path id="Vector" d="M11.8932 0.581402L4.32744 8.2014C4.03848 8.49087 3.8094 8.83519 3.65345 9.21443C3.49751 9.59367 3.41781 10.0003 3.41896 10.4108V11.2502C3.41896 11.4159 3.48434 11.5749 3.60071 11.6921C3.71709 11.8093 3.87493 11.8752 4.03951 11.8752H4.87291C5.28046 11.8763 5.6842 11.796 6.06074 11.639C6.43728 11.4819 6.77915 11.2512 7.06656 10.9602L14.6323 3.34015C14.995 2.97401 15.1986 2.47795 15.1986 1.96078C15.1986 1.44361 14.995 0.947545 14.6323 0.581402C14.2635 0.226335 13.773 0.028183 13.2628 0.028183C12.7526 0.028183 12.262 0.226335 11.8932 0.581402ZM13.7549 2.4564L6.1891 10.0764C5.83918 10.4267 5.36625 10.6238 4.87291 10.6252H4.66006V10.4108C4.66135 9.9139 4.85713 9.43757 5.2049 9.08515L12.7707 1.46515C12.9032 1.33762 13.0795 1.26646 13.2628 1.26646C13.4461 1.26646 13.6223 1.33762 13.7549 1.46515C13.8851 1.59672 13.9583 1.77496 13.9583 1.96078C13.9583 2.1466 13.8851 2.32483 13.7549 2.4564Z" fill="white" fill-opacity="0.4"/>
<path id="Vector_2" d="M14.5886 5.61188C14.424 5.61188 14.2662 5.67772 14.1498 5.79493C14.0334 5.91214 13.968 6.07112 13.968 6.23688V9.375H11.4858C10.9921 9.375 10.5186 9.57255 10.1694 9.92418C9.82032 10.2758 9.62418 10.7527 9.62418 11.25V13.75H3.41867C2.92493 13.75 2.45141 13.5525 2.10229 13.2008C1.75316 12.8492 1.55702 12.3723 1.55702 11.875V3.125C1.55702 2.62772 1.75316 2.15081 2.10229 1.79918C2.45141 1.44754 2.92493 1.25 3.41867 1.25H9.02969C9.19427 1.25 9.35211 1.18415 9.46849 1.06694C9.58486 0.949732 9.65024 0.79076 9.65024 0.625C9.65024 0.45924 9.58486 0.300269 9.46849 0.183058C9.35211 0.065848 9.19427 0 9.02969 0L3.41867 0C2.59607 0.000992411 1.80745 0.330551 1.22578 0.916387C0.644116 1.50222 0.316903 2.2965 0.315918 3.125L0.315918 11.875C0.316903 12.7035 0.644116 13.4978 1.22578 14.0836C1.80745 14.6695 2.59607 14.999 3.41867 15H10.4576C10.8652 15.0012 11.2691 14.9209 11.6457 14.7638C12.0223 14.6068 12.3643 14.3761 12.6518 14.085L14.3 12.4238C14.5891 12.1343 14.8182 11.79 14.9743 11.4108C15.1303 11.0315 15.2101 10.6249 15.2091 10.2144V6.23688C15.2091 6.07112 15.1438 5.91214 15.0274 5.79493C14.911 5.67772 14.7532 5.61188 14.5886 5.61188ZM11.7744 13.2013C11.5249 13.4519 11.2095 13.6254 10.8653 13.7013V11.25C10.8653 11.0842 10.9307 10.9253 11.047 10.8081C11.1634 10.6908 11.3213 10.625 11.4858 10.625H13.9215C13.8447 10.9709 13.6727 11.2881 13.4251 11.54L11.7744 13.2013Z" fill="white" fill-opacity="0.4"/>
</g>
<defs>
<clipPath id="clip0_162_667">
<rect width="14.8932" height="15" fill="white" transform="translate(0.315918)"/>
</clipPath>
</defs>
</svg>
