<svg width="17" height="16" viewBox="0 0 17 16" fill="none" xmlns="http://www.w3.org/2000/svg">
<g id="fi-rr-sun" clip-path="url(#clip0_225_5392)">
<path id="Vector" d="M15.5721 7.33333H12.8521C12.8002 6.96603 12.7041 6.60632 12.5661 6.262L14.9174 4.89933C14.996 4.85704 15.0653 4.79941 15.1212 4.72984C15.1771 4.66027 15.2185 4.58019 15.2428 4.49435C15.2672 4.4085 15.2741 4.31863 15.2631 4.23007C15.2521 4.14151 15.2234 4.05606 15.1788 3.97879C15.1341 3.90152 15.0744 3.83399 15.0032 3.78022C14.932 3.72645 14.8507 3.68752 14.7642 3.66575C14.6776 3.64398 14.5876 3.63981 14.4994 3.65348C14.4112 3.66715 14.3267 3.69838 14.2508 3.74533L11.8974 5.11C11.6725 4.82581 11.4154 4.56855 11.1314 4.34333L12.4954 1.98933C12.5776 1.8367 12.597 1.65808 12.5497 1.49134C12.5024 1.3246 12.3919 1.18285 12.2419 1.09615C12.0918 1.00944 11.9138 0.984603 11.7457 1.02689C11.5776 1.06918 11.4326 1.17527 11.3414 1.32267L9.97677 3.67267C9.6325 3.53448 9.27277 3.43845 8.90544 3.38667V0.666667C8.90544 0.489856 8.8352 0.320286 8.71017 0.195262C8.58515 0.0702379 8.41558 0 8.23877 0C8.06196 0 7.89239 0.0702379 7.76737 0.195262C7.64234 0.320286 7.5721 0.489856 7.5721 0.666667V3.38667C7.20477 3.43845 6.84504 3.53448 6.50077 3.67267L5.1381 1.32133C5.04691 1.17393 4.9019 1.06784 4.73381 1.02556C4.56571 0.983269 4.38776 1.00811 4.23768 1.09482C4.08759 1.18152 3.97718 1.32327 3.92984 1.49001C3.8825 1.65675 3.90197 1.83537 3.9841 1.988L5.3481 4.34333C5.06411 4.56855 4.80707 4.82581 4.5821 5.11L2.22877 3.74533C2.15288 3.69838 2.06833 3.66715 1.98015 3.65348C1.89196 3.63981 1.80192 3.64398 1.71538 3.66575C1.62884 3.68752 1.54754 3.72645 1.47632 3.78022C1.4051 3.83399 1.3454 3.90152 1.30076 3.97879C1.25612 4.05606 1.22745 4.14151 1.21645 4.23007C1.20544 4.31863 1.21233 4.4085 1.2367 4.49435C1.26107 4.58019 1.30243 4.66027 1.35833 4.72984C1.41423 4.79941 1.48352 4.85704 1.5621 4.89933L3.91144 6.262C3.7734 6.60632 3.67738 6.96603 3.62544 7.33333H0.905436C0.728625 7.33333 0.559056 7.40357 0.434032 7.5286C0.309007 7.65362 0.23877 7.82319 0.23877 8C0.23877 8.17681 0.309007 8.34638 0.434032 8.47141C0.559056 8.59643 0.728625 8.66667 0.905436 8.66667H3.62544C3.67738 9.03397 3.7734 9.39368 3.91144 9.738L1.5601 11.1007C1.48152 11.143 1.41223 11.2006 1.35633 11.2702C1.30043 11.3397 1.25907 11.4198 1.2347 11.5057C1.21033 11.5915 1.20344 11.6814 1.21445 11.7699C1.22545 11.8585 1.25412 11.9439 1.29876 12.0212C1.3434 12.0985 1.4031 12.166 1.47432 12.2198C1.54554 12.2736 1.62684 12.3125 1.71338 12.3342C1.79992 12.356 1.88996 12.3602 1.97815 12.3465C2.06633 12.3329 2.15088 12.3016 2.22677 12.2547L4.5801 10.89C4.80507 11.1742 5.06211 11.4314 5.3461 11.6567L3.9841 14.0107C3.90197 14.1633 3.8825 14.3419 3.92984 14.5087C3.97718 14.6754 4.08759 14.8171 4.23768 14.9039C4.38776 14.9906 4.56571 15.0154 4.73381 14.9731C4.9019 14.9308 5.04691 14.8247 5.1381 14.6773L6.50077 12.326C6.84508 12.4644 7.20477 12.5608 7.5721 12.6133V15.3333C7.5721 15.5101 7.64234 15.6797 7.76737 15.8047C7.89239 15.9298 8.06196 16 8.23877 16C8.41558 16 8.58515 15.9298 8.71017 15.8047C8.8352 15.6797 8.90544 15.5101 8.90544 15.3333V12.6133C9.27271 12.5612 9.6324 12.4652 9.97677 12.3273L11.3394 14.6787C11.4306 14.8261 11.5756 14.9322 11.7437 14.9744C11.9118 15.0167 12.0898 14.9919 12.2399 14.9052C12.3899 14.8185 12.5004 14.6767 12.5477 14.51C12.595 14.3433 12.5756 14.1646 12.4934 14.012L11.1294 11.658C11.4134 11.4328 11.6705 11.1755 11.8954 10.8913L14.2488 12.256C14.3247 12.303 14.4092 12.3342 14.4974 12.3479C14.5856 12.3615 14.6756 12.3574 14.7622 12.3356C14.8487 12.3138 14.93 12.2749 15.0012 12.2211C15.0724 12.1673 15.1321 12.0998 15.1768 12.0225C15.2214 11.9453 15.2501 11.8598 15.2611 11.7713C15.2721 11.6827 15.2652 11.5928 15.2408 11.507C15.2165 11.4211 15.1751 11.3411 15.1192 11.2715C15.0633 11.2019 14.994 11.1443 14.9154 11.102L12.5641 9.73933C12.7029 9.39467 12.7996 9.03451 12.8521 8.66667H15.5721C15.7489 8.66667 15.9185 8.59643 16.0435 8.47141C16.1685 8.34638 16.2388 8.17681 16.2388 8C16.2388 7.82319 16.1685 7.65362 16.0435 7.5286C15.9185 7.40357 15.7489 7.33333 15.5721 7.33333ZM8.23877 11.3333C3.83344 11.1933 3.83477 4.806 8.23877 4.66667C12.6441 4.80667 12.6428 11.194 8.23877 11.3333Z" fill="#001E6A" fill-opacity="0.4"/>
</g>
<defs>
<clipPath id="clip0_225_5392">
<rect width="16" height="16" fill="white" transform="translate(0.23877)"/>
</clipPath>
</defs>
</svg>
